<?xml version="1.0" encoding="utf-8"?>
<!-- Generator: Adobe Illustrator 22.1.0, SVG Export Plug-In . SVG Version: 6.00 Build 0)  -->
<svg version="1.1" id="Layer_1" xmlns="http://www.w3.org/2000/svg" xmlns:xlink="http://www.w3.org/1999/xlink" x="0px" y="0px"
	 viewBox="0 0 154 82" style="enable-background:new 0 0 154 82;" xml:space="preserve">
<style type="text/css">
	.st0{fill:#1B1B1B;}
</style>
<path class="st0" d="M72.7,19.5c2.2,0.3,4.1,0.7,5.9,0.7c14.5,0.1,29.1,0.1,43.6,0.3c9.7,0.1,19.4,0.4,29.2,0.7
	c0.8,0,1.6,0.2,2.3,0.3c0.8,3.2,0.3,56.4-0.6,59.6c-0.8,0.1-1.7,0.2-2.6,0.2c-20.6,0.2-41.2,0.2-61.8,0.5
	c-11.3,0.2-22.6,0.5-33.9,0.1c-12.3-0.4-24.6-0.7-36.9-1c-4.7-0.1-9.3-0.2-14-0.4c-0.8,0-1.6,0-2.7,0c-0.1-1.2-0.2-2.2-0.2-3.1
	C1,58.4,0.3,37.7,0.2,18.8C0.1,13.6,0.1,8.5,0,3.3c0-0.7,0-1.3,0-2c0.1-0.8,0.5-1.2,1.3-1.2C2.2,0,3,0,3.8,0
	C13.9,0.1,23.9,0.4,34,0.4c11.5,0,23.1-0.2,34.6-0.3c4.1,0,4.1,0,4.1,4.1c0,4.2,0,8.3,0,12.5C72.7,17.4,72.7,18.3,72.7,19.5z
	 M140.1,68.4c0.4-12.5,0.3-24.8-0.2-37.3c-2.5,0-4.7,0-7.1,0c0,12.5,0,24.8,0,37.3C135.2,68.4,137.4,68.4,140.1,68.4z M41.4,14.8
	c0,2.8,0,5,0,7.5c8.3,0.1,16.4,0.3,24.7,0.4c0.1-2.6,0.5-4.7-0.3-7.2C57.8,15.3,49.8,15.1,41.4,14.8z M12.5,21.1
	c4.6,1.1,22.3,1.9,24.7,1.1c0-2.1,0-4.2,0-6.5c-8.3-0.1-16.4-0.3-24.7-0.4C12.5,17.4,12.5,19.2,12.5,21.1z"/>
</svg>
