<?xml version="1.0" encoding="utf-8"?>
<!-- Generator: Adobe Illustrator 22.1.0, SVG Export Plug-In . SVG Version: 6.00 Build 0)  -->
<svg version="1.1" id="Layer_1" xmlns="http://www.w3.org/2000/svg" xmlns:xlink="http://www.w3.org/1999/xlink" x="0px" y="0px"
	 viewBox="0 0 154 82" style="enable-background:new 0 0 154 82;" xml:space="preserve">
<style type="text/css">
	.st0{fill:#1B1B1B;}
</style>
<path class="st0" d="M153.9,81.7c-1.5,0-2.7,0.1-3.9,0.1c-20.1,0-40.2,0-60.3,0c-12.4,0-24.8,0.2-37.2,0.2
	c-13.7-0.1-27.4-0.3-41.1-0.5c-2.7,0-5.4,0-8-0.1C1.1,81.3,1,81.2,1,79c-0.1-6.1-0.2-14.1-0.3-20.2C0.5,40.3,0.2,21.8,0,3.3
	c0-0.5,0-1,0-1.5c0-1,0.5-1.5,1.5-1.6c1.3-0.1,2.6-0.1,3.9-0.1c8.3,0.1,16.5,0.2,24.8,0.2C42.3,0.3,54.4,0.1,66.4,0
	c2.4,0,4.9,0.1,7.3,0.2c2.3,0.1,2.6,0.3,2.7,2.7c0.1,1.8,0.1,3.6,0.1,5.4c0,4.2,0,8.4,0,12.7c0,0.8,0.1,1.6,0.2,2.6
	c25.5,0.1,50.9,0.3,76.6-0.1C153.6,42.3,154,62.8,153.9,81.7z M144,61.4c-3.8,0-7.1-0.1-10.4-0.1c-9.2-0.1-18.5-0.3-27.7-0.4
	c-0.8,0-1.7,0.1-2.5,0.2c0.1,3,0.1,5.7,0.2,8.4c2.1,0.5,38.3,0.9,40.2,0.4C143.8,67.3,143.9,64.5,144,61.4z M65.7,14.8
	c-8.4-0.2-16.6-0.4-24.9-0.1c0.1,2.6,0.1,4.9,0.2,7.2c2.5,0.6,22.7,0.3,24.8-0.5C65.8,19.4,65.7,17.3,65.7,14.8z M10.4,15.3
	c0,2.6-0.1,4.8,0.4,7c4.3-0.3,8.3-0.6,12.4-0.9c4.1-0.2,8.2-0.4,12.6-0.6c-0.2-2.3-0.3-4.3-0.4-6.6C26.9,14.5,18.8,14.7,10.4,15.3z"
	/>
</svg>
