<?xml version="1.0" encoding="utf-8"?>
<!-- Generator: Adobe Illustrator 22.1.0, SVG Export Plug-In . SVG Version: 6.00 Build 0)  -->
<svg version="1.1" id="Layer_1" xmlns="http://www.w3.org/2000/svg" xmlns:xlink="http://www.w3.org/1999/xlink" x="0px" y="0px"
	 viewBox="0 0 154 82" style="enable-background:new 0 0 154 82;" xml:space="preserve">
<style type="text/css">
	.st0{fill:#1B1B1B;}
</style>
<path class="st0" d="M1,81.6c0-1.4,0-2.3-0.1-3.3C0.6,57.8,0.4,33,0.1,12.5C0,9.1,0,5.6,0,2.2c0-1.8,0.2-2,1.9-2.1C4.5,0,7,0,9.5,0
	c20.3,0.1,40.5,0.3,60.8,0.5c3.9,0,4-0.5,4,4c0,4.3,0,8.5,0.1,12.8c0,0.7,0,1.5,0.1,2.2c0,1.3,0.7,1.9,2,1.9c3,0,6,0.1,9.1,0.2
	c13.2,0.3,26.3,0.6,39.5,0.9c8.8,0.2,17.6,0.4,26.5,0.6c0.6,0,1.3,0.1,2.2,0.2c0.1,1,0.3,1.9,0.3,2.9c-0.3,15.9-0.6,36.1-0.9,52
	c0,0.3,0,0.7,0,1c-0.1,1.6-0.4,1.9-1.9,1.9c-2.5,0.1-5.1,0-7.6,0C108,81.4,72.5,81.7,36.9,82C26.6,82.1,16.3,81.8,6,81.7
	C4.5,81.7,3,81.6,1,81.6z M11,21.2c8.4,0.8,16.4,1.7,24.8,2.5c0.2-2.6,0.4-5.2,0.5-7.9c-8.5-0.5-16.7-0.9-25-1.1
	C11.2,17,11.1,19.1,11,21.2z M67.6,15.9C59.2,16,51.2,16.1,43,16.2c0,2.3,0.1,4.4,0.1,6.5c2.6,0.7,22.7,0.3,24.6-0.5
	C67.7,20.3,67.6,18.3,67.6,15.9z M122.1,59.7c4-0.1,7.7,0.6,11.6-0.2c0.1-4.2,0.2-8.2,0.3-12.5c-4,0.1-7.7,0.1-11.6,0.2
	C121.8,51.4,122.1,55.3,122.1,59.7z"/>
</svg>
