<?xml version="1.0" encoding="utf-8"?>
<!-- Generator: Adobe Illustrator 22.1.0, SVG Export Plug-In . SVG Version: 6.00 Build 0)  -->
<svg version="1.1" id="Layer_1" xmlns="http://www.w3.org/2000/svg" xmlns:xlink="http://www.w3.org/1999/xlink" x="0px" y="0px"
	 viewBox="0 0 154 82" style="enable-background:new 0 0 154 82;" xml:space="preserve">
<style type="text/css">
	.st0{fill:#1B1B1B;}
</style>
<path class="st0" d="M153.5,81.9c-1.6,0-2.9,0.1-4.2,0.1c-20-0.2-40-0.6-60-0.6c-20.6-0.1-41.1,0.3-61.7,0.3
	c-8.1,0-16.3-0.3-24.4-0.6c-2.6-0.1-2.8-0.3-2.8-2.8c-0.1-10.8,0-24.8-0.1-35.6C0.2,30.1,0.1,17.5,0,4.9c0-4.4-0.6-4.3,4.2-4.3
	c8.9-0.1,17.9,0.1,26.8,0C41.9,0.4,52.7,0.2,63.5,0c2.8,0,5.7,0.1,8.5,0.1c1.3,0,1.9,0.7,2.1,1.9c0.1,0.8,0.2,1.6,0.2,2.4
	c0.1,5.4,0.3,10.9,0.3,16.3c0,3,1.4,3.9,4,3.8c7.5-0.2,14.9-0.4,22.4-0.4c13.2,0,26.5,0.1,39.7,0.1c3.2,0,6.5-0.2,9.7-0.3
	c2.6-0.1,2.7,0,2.7,2.5c0.2,10,0.3,20,0.4,30c0.1,6.4-0.1,16,0,22.4C153.6,79.8,153.5,80.7,153.5,81.9z M100.6,66.7
	c13.5-0.7,26.5,0.1,39.5-0.5c0.6-3.5,0.8-30.2,0.3-31.9c-13.4,0.2-26.9,0.5-40.3,0.7C100.3,45.7,100.5,56,100.6,66.7z M35.3,15.1
	c-8.5,0.2-16.7,0.3-25,0.5c0,2.3,0.1,4.4,0.1,6.9c8.4,0.2,16.6,0.5,25.1,0.7C35.4,20.4,35.4,18,35.3,15.1z M65.1,21.2
	c0.7-2.5,0.7-5.2-0.1-7.1c-8.1,0.1-16.1,0.3-24.3,0.4c-0.4,2.2-0.4,4.1-0.1,6.3C49,21,57.1,21.1,65.1,21.2z"/>
</svg>
