<?xml version="1.0" encoding="utf-8"?>
<!-- Generator: Adobe Illustrator 22.1.0, SVG Export Plug-In . SVG Version: 6.00 Build 0)  -->
<svg version="1.1" id="Layer_1" xmlns="http://www.w3.org/2000/svg" xmlns:xlink="http://www.w3.org/1999/xlink" x="0px" y="0px"
	 viewBox="0 0 154 82" style="enable-background:new 0 0 154 82;" xml:space="preserve">
<style type="text/css">
	.st0{fill:#1B1B1B;}
</style>
<path class="st0" d="M78.3,0.2c0,1.1,0,1.9,0,2.7c0,5.4,0,10.9,0,16.3c0,0.7,0,1.5,0.1,2.2c0.2,2.8,0.6,3.2,3.3,3.2
	c8.3,0.1,16.5,0,24.8,0.2c14.9,0.4,29.7,0.9,44.6,1.4c0.9,0,1.9,0.4,3,0.6c0,1,0,1.7,0,2.4c-0.3,14-0.6,34.2-0.8,48.2
	c-0.1,3.3,0.4,3.4-3.4,3.4c-13,0-26.1-0.1-39.1,0c-21.4,0.1-42.8,0.1-64.1,0.3C32.1,81.4,17.8,81.7,3.4,82c-0.9,0-1.8,0-3,0
	c-0.1-1.2-0.3-2.3-0.3-3.4c0-13.4,0-32.9-0.1-46.2C0,23.1,0,13.8,0,4.6c0-0.1,0-0.2,0-0.2C0,1.3,0.1,1.1,3.2,1
	c8.2-0.2,16.3-0.4,24.5-0.5C43.6,0.3,59.5,0.2,75.5,0C76.3,0,77.1,0.1,78.3,0.2z M142.2,56.5c-4.7-1-43.2-2.1-46.2-1.4
	c0.1,2.7,0.2,5.5,0.4,8.2c4.3,0.9,42.5,1.6,45.4,0.8C141.9,61.6,142.1,59.1,142.2,56.5z M24.9,12.5c-2.5-0.4-4.7-0.2-7,0.3
	c-0.1,0.7-0.2,1.2-0.2,1.8c-0.1,6.7-0.1,13.3-0.1,20c0,0.4,0,0.8,0.1,1.2c0,0.8,0.4,1.3,1.2,1.3c2,0.1,4.1,0.3,6.1-0.3
	C24.9,28.7,24.9,20.7,24.9,12.5z M35.4,36.1c1.7,0,3.3,0.1,5,0c2.2-0.1,2.3-0.3,2.5-2.5c0-0.4,0.1-0.8,0.1-1.2
	c0.1-4.6,0.2-9.2,0.2-13.8c0-1.7,0.3-3.4-0.5-5.3c-2.4,0.4-4.7,0.9-7.2,1.3C35.4,21.8,35.4,28.9,35.4,36.1z"/>
</svg>
