<?xml version="1.0" encoding="utf-8"?>
<!-- Generator: Adobe Illustrator 22.1.0, SVG Export Plug-In . SVG Version: 6.00 Build 0)  -->
<svg version="1.1" id="Layer_1" xmlns="http://www.w3.org/2000/svg" xmlns:xlink="http://www.w3.org/1999/xlink" x="0px" y="0px"
	 viewBox="0 0 154 82" style="enable-background:new 0 0 154 82;" xml:space="preserve">
<style type="text/css">
	.st0{fill:#1B1B1B;}
</style>
<path class="st0" d="M73.9,0.3c0,0.8,0.1,1.6,0.1,2.3c0.2,6.1,0.4,12.2,0.6,18.3c0,0.5,0.1,1,0.1,1.5c0,1.2,0.7,1.8,1.8,1.9
	c3.1,0.2,6.2,0.6,9.3,0.6c11.3,0,22.5-0.3,33.8-0.2c10.4,0.1,20.7,0.7,31.1,1.1c0.9,0,1.8,0.2,2.5,0.3c0.8,2.9,0.1,51.9-0.8,55.2
	c-1.8,0.2-3.7,0.4-5.5,0.5c-6.8,0.2-13.6,0.2-20.5,0.3c-5.2,0.1-10.4,0.1-15.5,0c-11.4,0-22.9,0-34.3-0.1c-24.5-0.1-49-0.3-73.5-0.4
	c-0.7,0-1.5-0.1-2.1-0.1c-1-1.6-0.8-3.3-0.8-4.9c0-8.7,0-20.6,0-29.3C0.1,32.9,0,18.6,0,4.2c0-1,0.1-2,0.1-2.9
	C2.8,0.5,70.3-0.6,73.9,0.3z M140.1,60.9c0.6-2.2,0.7-16.3,0.1-19c-2-0.6-17.1-0.8-19.3-0.1c-0.1,6.3-0.6,12.7-0.3,19.3
	C127.2,61,133.6,60.9,140.1,60.9z M37,11.8c-0.1,8.3-0.1,16.5,0.3,24.8c2.2,0,4.2-0.1,6-0.1c0.1-0.4,0.2-0.7,0.2-0.9
	c0.2-7.3,0.5-14.6,0.7-21.9c0-0.6-0.2-1.2-0.3-2C41.6,11.8,39.4,11.8,37,11.8z M16.1,12.7c-0.3,7.8-0.3,15.2-0.1,22.7
	c2.5,0.5,4.8,0.4,7.3,0c0-2.6,0.1-5.1,0.1-7.7c0-2.5,0-5.1,0-7.6c-0.1-2.5,0.3-5-0.3-7.5C20.6,12.7,18.5,12.7,16.1,12.7z"/>
</svg>
