<?xml version="1.0" encoding="utf-8"?>
<!-- Generator: Adobe Illustrator 22.1.0, SVG Export Plug-In . SVG Version: 6.00 Build 0)  -->
<svg version="1.1" id="Layer_1" xmlns="http://www.w3.org/2000/svg" xmlns:xlink="http://www.w3.org/1999/xlink" x="0px" y="0px"
	 viewBox="0 0 154 82" style="enable-background:new 0 0 154 82;" xml:space="preserve">
<style type="text/css">
	.st0{fill:#1B1B1B;}
</style>
<g>
	<g>
		<path class="st0" d="M153.5,81.7c-0.8,0.1-1.3,0.2-1.9,0.2c-16.9,0-33.8,0.1-50.6,0c-16.2-0.1-32.3-0.4-48.5-0.4
			c-16.5,0-33,0.1-49.4,0.2c-2.9,0-3-0.1-3-2.9C0.1,63.7,0.2,42,0.3,26.9c0-7.8,0.1-15.7,0.2-23.5c0-0.8,0.1-1.6,0.1-2.6
			c1.1-0.1,2.1-0.3,3.1-0.4C13.9,0.2,24.1,0.1,34.3,0c12.5-0.1,25-0.1,37.6-0.2c1.1,0,2.1,0,3.2,0c1.2,0,1.8,0.6,1.8,1.7
			C76.9,3,77,4.4,77,5.7c0.1,5.3,0.1,10.7,0.1,16c0,0.5,0,1,0,1.5c0,1.3,0.7,1.9,2,1.9c2.1,0.1,4.2,0.2,6.3,0.2
			c12.1,0,24.2-0.2,36.4-0.1c9.6,0,19.2,0.2,28.8,0.3c0.4,0,0.8,0,1.2,0c1.2,0,1.7,0.6,1.8,1.8c0.1,1.6,0.2,3.2,0.2,4.8
			c0,11.8,0,30.2,0,42C153.8,76.7,153.6,79.1,153.5,81.7z M131.6,66.5c2.8,0.1,5.2,0.2,7.9,0.3c0.5-9.7,0.9-19.1,1.4-28.6
			c-3-0.7-5.7-0.9-8.7-0.8C131.8,47.2,131.3,56.6,131.6,66.5z M33.9,15.2C33,18.7,32.3,35.4,33,37.4c2.4,0.1,4.9,0.2,7.3,0.3
			c0.7-2.8,1-19.4,0.3-21.8C38.4,15.6,36.2,14.9,33.9,15.2z M14.9,14c-0.4,7.8-0.8,15.4-0.4,23.2c2.3,0.2,4.4,0.5,6.4,0.7
			c0.7-2.9,1.4-21.7,0.8-23.6C19.6,14.2,17.4,14.1,14.9,14z"/>
	</g>
</g>
</svg>
