<?xml version="1.0" encoding="utf-8"?>
<!-- Generator: Adobe Illustrator 22.1.0, SVG Export Plug-In . SVG Version: 6.00 Build 0)  -->
<svg version="1.1" id="Layer_1" xmlns="http://www.w3.org/2000/svg" xmlns:xlink="http://www.w3.org/1999/xlink" x="0px" y="0px"
	 viewBox="0 0 154 82" style="enable-background:new 0 0 154 82;" xml:space="preserve">
<style type="text/css">
	.st0{fill:#1B1B1B;}
</style>
<path class="st0" d="M152.3,81.3c-9,0.2-17.5,0.4-26,0.4c-38.5,0.1-66.7,0-84.8,0c-9.1,0-18.3-0.6-27.4-0.9c-4-0.1-8-0.3-12-0.4
	c-0.6,0-1.1-0.1-1.9-0.2c-0.1-1-0.2-1.9-0.2-2.9c0.1-17.5,0.2-37.2,0.3-54.6c0-6.3,0.1-12.6,0.1-18.9c0-1,0.1-2.1,0.2-3.4
	c1.4-0.1,2.7-0.3,4-0.3C19.4,0.2,34.1,0,48.9,0c8.6,0,17.1,0.1,25.7,0.1c1,0,2,0,2.9,0c2.7,0.1,2.9,0.3,2.9,3
	c-0.1,4.6-0.4,9.3-0.5,13.9c-0.1,2.4-0.2,4.7-0.2,7.1c0,4,0.7,4.8,4.6,4.9c10,0.2,20.1,0.3,30.1,0.4c12.2,0.2,24.5,0.3,36.7,0.5
	c0.8,0,1.6,0.1,2.7,0.2c0.3,8.3,0,16.4-0.3,24.5C153.4,62.9,153.6,73.2,152.3,81.3z M103.6,49.7c-2.3-0.2-4.5,0-7.1,0.2
	c-0.3,5.2-1,10.2-0.7,15.5c16,0.6,31.9,0.1,48,0.2c0.3-5.7,0.8-11.2,0.8-16.9c-2.3-0.1-4.2-0.4-6.3,0.3c0,0.9,0,1.8,0,2.7
	c0,1.6,0,3.3,0,4.9c0,0.9-0.4,1.6-1.4,1.6c-2,0.1-4,0.1-6.1,0.1c-8,0.2-16,0.4-24,0.5c-0.9,0-1.7,0-2.7,0
	C103.4,55.9,104,52.9,103.6,49.7z M15.3,36.3c2.8,0,5.4,0,8.1,0c0-7.4,0-14.6,0-22c-1.8-0.1-3.7-0.2-5.5-0.2c-1.9,0-2,0.1-2.1,2.1
	c-0.2,4.9-0.4,9.8-0.5,14.6C15.3,32.6,15.3,34.4,15.3,36.3z M42.2,36.4c0.6-2.8,0.5-20.1-0.1-21.9c-2.3-0.1-4.6-0.6-7.1-0.1
	c0,7.4-0.2,14.6,0.1,22C37.7,36.4,40,36.4,42.2,36.4z"/>
</svg>
