<?xml version="1.0" encoding="utf-8"?>
<!-- Generator: Adobe Illustrator 22.1.0, SVG Export Plug-In . SVG Version: 6.00 Build 0)  -->
<svg version="1.1" id="Layer_1" xmlns="http://www.w3.org/2000/svg" xmlns:xlink="http://www.w3.org/1999/xlink" x="0px" y="0px"
	 viewBox="0 0 154 82" style="enable-background:new 0 0 154 82;" xml:space="preserve">
<style type="text/css">
	.st0{fill:#1B1B1B;}
</style>
<path class="st0" d="M0,0.9c1.5,0,2.5,0,3.5,0C26.7,0.6,49.8,0.3,72.9,0c0.4,0,0.9,0,1.3,0c1.3,0,1.8,0.7,1.9,1.9
	c0,0.6,0,1.2,0.1,1.8c0.2,5.2,0.4,10.4,0.6,15.6c0.1,2.9,0.3,3,3.2,3c15.4,0,30.7,0,46.1,0c8,0,16,0,24.1,0c1.1,0,2.2,0.2,3.5,0.3
	c0.1,1.8,0.2,3.4,0.2,5c0.1,15.7,0.1,34.4,0.2,50.1c0,5-0.3,4.2-4.2,4.2c-21.1,0-42.2,0-63.2,0c-10.5,0-21,0.2-31.5,0.1
	C38,82,20.8,81.9,3.7,81.8c-0.8,0-1.5-0.1-2.6-0.1c-0.1-1.6-0.3-3-0.3-4.4C0.7,63.6,0.5,47,0.4,33.3C0.3,23.6,0.1,13.9,0,4.1
	C0,3.2,0,2.3,0,0.9z M132.8,55.1c-15,1.7-29.8,1.2-44.7,1.2c-0.2-2.5-0.3-4.7-0.5-7.2c-2.7,0.2-5.1,0.3-7.4,0.5
	c-0.5,2.8,0.1,13.5,0.9,15.3c0.9,0,1.8,0,2.7,0c8.9-0.1,17.8-0.3,26.6-0.4c8.6-0.1,17.2-0.1,25.9-0.3c1.6,0,3.2-0.2,5-0.3
	c-0.2-4.9-0.4-9.6-0.6-14.3c-2.7-0.5-5.2-0.8-8-0.3C132.8,51.3,132.8,53.2,132.8,55.1z M13,33.3c3,0.6,18.2,0.3,20.1-0.4
	C33,26.7,32.9,20.4,32.8,14c-6.9-1-13.5-0.7-20.4-0.2C12.6,20.5,12.8,26.9,13,33.3z M43.7,33.1c6.7-0.3,12.8-0.5,18.8-0.8
	c0.6-2.8,0.5-17.7-0.2-19.7c-6.3,0.2-12.8,0.5-19.5,0.7C43.1,20,43.4,26.4,43.7,33.1z"/>
</svg>
