<?xml version="1.0" encoding="utf-8"?>
<!-- Generator: Adobe Illustrator 22.1.0, SVG Export Plug-In . SVG Version: 6.00 Build 0)  -->
<svg version="1.1" id="Layer_1" xmlns="http://www.w3.org/2000/svg" xmlns:xlink="http://www.w3.org/1999/xlink" x="0px" y="0px"
	 viewBox="0 0 154 82" style="enable-background:new 0 0 154 82;" xml:space="preserve">
<style type="text/css">
	.st0{fill:#1B1B1B;}
</style>
<path class="st0" d="M154,28.2c-0.3,17.9-0.7,35.8-1,53.8c-1,0-1.8,0-2.5,0c-21-0.4-48.5-1-69.5-1.3c-15.7-0.2-31.4,0-47.1-0.1
	c-9.7,0-19.4-0.2-29-0.2c-0.6,0-1.2,0-1.9-0.1c-1.8-0.1-2-0.3-2-2.1c-0.1-3.5,0-7-0.1-10.5C0.6,46.5,0.3,25.4,0,4.2C0,0,0,0,4.1,0
	c14.2,0.1,28.4,0.2,42.6,0.3c5,0,10,0.1,15,0.1c1.7,0,3.4,0.2,5.1,0.3c0.6,0.1,1.2,0.3,1.9,0.5c0,0.6,0,1.1,0,1.5
	c-0.2,6.7-0.3,13.4-0.5,20.1c0,0.3,0,0.6,0,0.9c0.1,2.1,0.3,2.3,2.4,2.3c6.5,0.1,13,0,19.4,0.1c12.3,0.2,24.5,0.5,36.7,0.9
	c6.2,0.2,19,0.5,25.2,0.8C152.6,27.9,153.2,28.1,154,28.2z M12,36.6c6.3-0.2,12.3-0.5,18.6-0.7c-0.1-6-0.6-11.7-1-17.6
	c-6.1-0.3-12.1,0.3-18.2,0.5C11.6,24.8,11.8,30.5,12,36.6z M56.6,17.7c-6.1,0-11.8,0-17.5,0c-0.6,2.9-0.4,15.7,0.3,17.9
	c5.7-0.2,11.5-0.3,17.6-0.5C56.9,29.1,56.7,23.5,56.6,17.7z M128,35c-0.4,12.6-0.7,25-0.7,37.2c3,0.6,5.2,0.6,7.1,0
	c0.8-11.9,1.4-24,1.5-36.1C133.2,35.7,130.8,35.3,128,35z"/>
</svg>
