<?xml version="1.0" encoding="utf-8"?>
<!-- Generator: Adobe Illustrator 22.1.0, SVG Export Plug-In . SVG Version: 6.00 Build 0)  -->
<svg version="1.1" id="Layer_1" xmlns="http://www.w3.org/2000/svg" xmlns:xlink="http://www.w3.org/1999/xlink" x="0px" y="0px"
	 viewBox="0 0 154 82" style="enable-background:new 0 0 154 82;" xml:space="preserve">
<style type="text/css">
	.st0{fill:#1B1B1B;}
</style>
<path class="st0" d="M10.5,0.3c16.4,0.2,32.7,0.3,49.1,0.5c3.9,0,7.9,0.2,11.8,0.3c0.7,0,1.4,0.1,2.4,0.2c0.1,1,0.2,1.9,0.2,2.9
	c-0.1,5.2-0.2,10.3-0.3,15.5c0,0.2,0,0.5,0,0.7c0.1,2.1,0.3,2.4,2.4,2.5c1.8,0.1,3.6,0.2,5.4,0.2c15,0.4,29.9,0.7,44.9,1
	c7.2,0.2,16.6,0.3,23.8,0.5c1.1,0,2.1,0.1,3.4,0.2c0.6,4.7-0.1,9.4,0,14c0.1,4.6,0,9.2,0,13.8c0,4.7,0,9.7,0.1,14.3
	c0,4.6,0,9.1,0,14c-1.2,0.1-2.1,0.2-3.1,0.2c-6.2,0.1-14.6,0.1-20.8,0.1c-10,0-20,0-29.9,0.1c-4.9,0-9.8,0.2-14.7,0.4
	c-15.6,0.7-31.3-0.1-46.9-0.4c-8.6-0.2-17.2-0.3-25.8-0.4c-3.1,0-6.2-0.1-9.3-0.1c-0.7,0-1.4-0.1-2.5-0.1
	c-0.6-9.4-0.6-18.8-0.6-27.8c0-9.1-0.3-18.2-0.1-27.2C0.2,17.1-0.3,8.7,0.6,0L10.5,0.3z M33,12.8c-6.6-0.2-13-0.4-19.8-0.6
	c-0.1,7.1-0.2,14,0,21.1c6.8,0,13.2,0,19.8,0C33,26.5,33,19.8,33,12.8z M118,64.9c6.7,0.2,12.9,0.1,19.2-0.4c0-6.5,0-12.7,0-19
	c-6.5-0.5-12.9-0.6-19.5-0.5C117.7,51.7,117.7,58.1,118,64.9z M61.3,33.1c0.1-6.5,0.3-12.8,0.1-19.4c-6.4,0-12.6,0-18.8,0
	c0,6.5,0,12.9,0,19.4C48.9,33.1,55,33.1,61.3,33.1z"/>
</svg>
