<?xml version="1.0" encoding="utf-8"?>
<!-- Generator: Adobe Illustrator 22.1.0, SVG Export Plug-In . SVG Version: 6.00 Build 0)  -->
<svg version="1.1" id="Layer_1" xmlns="http://www.w3.org/2000/svg" xmlns:xlink="http://www.w3.org/1999/xlink" x="0px" y="0px"
	 viewBox="0 0 154 82" style="enable-background:new 0 0 154 82;" xml:space="preserve">
<style type="text/css">
	.st0{fill:#1B1B1B;}
</style>
<path class="st0" d="M1.6,81.4c-0.1-1.2-0.3-2-0.3-2.9c-0.3-19.6-0.7-40.3-1-59.8c-0.1-5-0.2-10-0.2-15c0-2.5,0.2-2.8,2.7-2.9
	c8.9-0.2,17.8-0.3,26.7-0.4C42.1,0.2,54.8,0.1,67.5,0c2.7,0,2.9,0.2,2.9,2.9c0,4.8,0,9.5,0,14.3c0,1,0,1.9,0.1,3.2
	c4.8,0.3,9.4-0.5,13.9-0.3c4.6,0.1,9.2,0.1,13.8,0.1c4.6,0,9.2,0.1,13.8,0.2c4.6,0.1,9.2,0.1,13.8,0.2c4.6,0,9.2,0,13.8,0
	c4.6,0,9.2,0,14,0.1c0.1,1.4,0.3,2.5,0.3,3.6c0,16.9,0.1,34.9,0.1,51.8c0,1.2,0,2.4,0,3.6c-0.1,2.1-0.2,2.2-2.2,2.2
	c-3.6-0.1-7.1-0.2-10.7-0.2c-14.8,0-29.6,0.1-44.4,0.2c-13.3,0.1-26.5,0.2-39.8,0.1c-13.2-0.1-26.4-0.5-39.5-0.6
	c-4.3-0.1-8.6,0.1-12.9,0.1C3.6,81.5,2.7,81.4,1.6,81.4z M142.8,65.8c0.1-0.6,0.2-1.1,0.2-1.6c0.3-4.4,0.7-8.9,1-13.3
	c0.3-4.8,0.6-9.7,0.8-14.5c0-0.9-0.1-1.8-0.2-2.7c-12.3-0.4-24.3-0.7-36.4-1.1c-0.5,11-1.2,21.6-1,32.2
	C109.3,65.6,139.5,66.4,142.8,65.8z M59,33.8c1.6-2,3-3.8,4.7-5.8c-2.4-1.9-4.6-3.6-7-5.4c2.1-2.5,4.1-4.8,6.2-7.3
	c-1.8-1.4-3.5-2.7-5-3.9c-1.7,1.7-3.3,3.2-4.8,4.8c-1.6,1.6-1.7,1.6-3.4,0.3c-1.7-1.4-3.3-2.8-4.7-3.9c-1.9,1.7-3.6,3.1-5.4,4.8
	c2.3,2,4.2,3.8,6.2,5.5c-0.7,3.2-3.6,4.7-5.1,7.3c1.6,1.4,3.2,2.6,4.8,4.1c1.9-2.2,3.6-4.3,5.5-6.5C53.8,29.7,56.3,31.6,59,33.8z
	 M34.4,29.2C33,28,31.9,27,30.7,26c-1.2-1.1-1.3-1.8-0.4-3.1c0.8-1,1.7-1.9,2.5-2.9c0.7-0.8,1.3-1.7,2.1-2.7c-1.6-1.4-3-2.5-4.4-3.7
	c-2.1,1.9-4,3.7-5.9,5.5c-2.3-2-4.4-3.8-6.8-5.8c-1.5,1.6-2.8,3-4.3,4.6c2.2,2.1,4.1,4,6.1,5.9c-1.8,2-3.3,3.7-5,5.7
	c1.7,1.3,3.3,2.5,4.9,3.7c1.7-1.7,3.2-3.2,4.8-4.9c2.2,1.9,4.2,3.7,6.5,5.6C32,32.2,33.1,30.8,34.4,29.2z"/>
</svg>
