<?xml version="1.0" encoding="utf-8"?>
<!-- Generator: Adobe Illustrator 22.1.0, SVG Export Plug-In . SVG Version: 6.00 Build 0)  -->
<svg version="1.1" id="Layer_1" xmlns="http://www.w3.org/2000/svg" xmlns:xlink="http://www.w3.org/1999/xlink" x="0px" y="0px"
	 viewBox="0 0 154 82" style="enable-background:new 0 0 154 82;" xml:space="preserve">
<style type="text/css">
	.st0{fill:#1B1B1B;}
</style>
<path class="st0" d="M0.1,1c3.7-1.1,64.6-1.4,67.9-0.3c0.1,0.8,0.2,1.7,0.2,2.5c0.1,3.1,0.3,6.3,0.4,9.4c0.1,1.8,0.1,3.6,1.1,5.3
	c0.5,0.8,0.2,2.1,0.2,3.5c0.6,0.8,1.7,0.5,2.7,0.5c5.9,0,11.7-0.1,17.6-0.1c11,0,22,0.1,33.1,0.2c9.4,0.1,18.8,0.3,28.2,0.4
	c0.6,0,1.3,0.1,1.9,0.1c0.6,1.7,1,55.9,0.4,59c-0.8,0-1.6,0.1-2.5,0.1c-7.7,0-15.4-0.1-23.2-0.2c-9.3,0-18.7-0.1-28-0.1
	c-13.2,0-26.4,0.2-39.6,0.3c-18.9,0.1-37.8,0.1-56.7,0.2c-2.5,0-2.6-0.1-2.7-2.5C1,65.8,0.8,49.7,0.6,36.1C0.5,25.7,0.2,15.3,0,4.9
	C0,3.6,0.1,2.2,0.1,1z M60.4,14.4c-2-1.2-3.8-2.2-5.5-3.2c-2,1.9-2.5,4.6-4.7,6.2c-2.5-1.4-5-2.9-7.8-4.4c-1.5,2.3-2.8,4.4-4.2,6.7
	c2.6,1.3,4.8,2.5,7.1,3.7c-1.6,2.7-3,5.1-4.5,7.7c2.1,1.1,4,2.1,5.9,3.1c2-2,2.5-4.9,4.5-6.7c2.4,1.2,4.6,2.4,7,3.6
	c1.2-1.9,2.8-3.3,3.4-5.4c-2-1.4-3.8-2.8-5.8-4.3C57.4,19.1,58.8,16.9,60.4,14.4z M28.4,23.8c1.7-2.1,3.3-4,4.9-5.9
	c-1.7-1.7-3.4-3.4-5.2-5.2c-1.7,1.8-3.1,3.3-4.7,5c-2.2-1.9-4.2-3.7-6-5.3c-1.6,1.5-3.1,2.8-4.6,4.3c1.9,2,3.6,3.8,5.5,5.7
	c-1.8,2.2-3.6,4.2-5.5,6.5c1.8,1.7,3.4,3.3,5.1,4.9c1.8-1.9,3.3-3.6,5-5.4c2.3,2,4.4,3.9,6.6,5.8c1.4-2,2.7-3.7,4-5.6
	C31.8,27,30.3,25.6,28.4,23.8z M127.6,68.9c3.4-0.2,6.6,0.6,10-0.2c-0.1-3.1-0.3-5.9-0.4-9c-3.4-0.1-6.6-0.2-10-0.3
	C127.2,62.7,127,65.7,127.6,68.9z"/>
</svg>
