<?xml version="1.0" encoding="utf-8"?>
<!-- Generator: Adobe Illustrator 22.1.0, SVG Export Plug-In . SVG Version: 6.00 Build 0)  -->
<svg version="1.1" id="Layer_1" xmlns="http://www.w3.org/2000/svg" xmlns:xlink="http://www.w3.org/1999/xlink" x="0px" y="0px"
	 viewBox="0 0 154 82" style="enable-background:new 0 0 154 82;" xml:space="preserve">
<style type="text/css">
	.st0{fill:#1B1B1B;}
</style>
<path class="st0" d="M154,81.7C103.1,81.8,52.5,81.9,1.6,82c-0.1-1-0.3-2-0.3-3C1,65.3,0.8,45.7,0.5,32C0.4,22.9,0.2,13.9,0,4.9
	c0-0.6-0.1-1.3-0.1-1.9c0-1.8,0.2-2.1,2-2.2C7.1,0.4,12.3,0,17.5,0c17.1,0,34.2,0.1,51.3,0.1c0.7,0,1.4,0.1,2.3,0.2
	c0.1,1,0.3,1.8,0.3,2.7c0.2,3.2,0.3,6.4,0.6,9.6c0.1,0.9,0.5,1.8,0.7,2.7c0.1,0.5,0.2,1,0.2,1.5c0,0.4-0.1,0.8-0.2,1.2
	c-0.3,2.9,0.3,3.6,3.3,3.3c17.2-1.3,34.5-1,51.8-1c7.7,0,15.3,0.4,23,0.6c2.7,0.1,2.8,0.1,2.8,2.9c0.2,16.5,0.3,39,0.4,55.4
	C154.1,80,154,80.8,154,81.7z M134.3,39.7c-1.6-2.7-3.1-5.3-4.7-8.1c-15.1,8.7-30.5,15.8-45.4,24.1c1,2.8,3.6,7.1,5.1,8.5
	C104.5,56.7,119.5,48.8,134.3,39.7z M42.8,27.4c1.7,1.3,3.1,2.5,4.8,3.8c1.4-1.7,2.7-3.3,4-5c1.8,1.5,3.4,2.8,5.3,4.3
	c1.5-1.9,2.8-3.7,4.2-5.5c-1.4-1.2-2.5-2.3-3.9-3.4c1.7-2.1,3.2-4,4.7-6c-1.6-1.5-3.1-3-5.1-3.7c-1.2,1.6-2.4,3.1-3.5,4.6
	c-2.4-1.8-4.6-3.4-6.9-5.1c-1.5,1.8-2.9,3.4-4.4,5.2c1.8,1.6,3.5,3,5.2,4.5C45.8,23.2,44.4,25.1,42.8,27.4z M17.9,21.3
	c-1.2,2.3-2.2,4.4-3.3,6.6c2,0.9,3.7,1.7,5.5,2.6c1-1.7,1.8-3.2,2.6-4.6c0.9-1.6,1.5-1.8,3-0.9c0.4,0.2,0.7,0.6,1.1,0.8
	c1.2,0.6,2.4,1.2,3.8,1.9c1.1-2.3,2.1-4.2,3.1-6.4c-2-0.8-3.7-1.5-5.6-2.2c1.4-2.5,2.6-4.6,3.9-7c-2-0.9-3.7-1.7-5.6-2.5
	c-1.1,2.3-2,4.3-3,6.4c-2.2-0.9-4.2-1.7-6.4-2.6c-1.2,1.9-2.3,3.7-3.4,5.6C15.1,19.9,16.4,20.5,17.9,21.3z"/>
</svg>
