<?xml version="1.0" encoding="utf-8"?>
<!-- Generator: Adobe Illustrator 22.1.0, SVG Export Plug-In . SVG Version: 6.00 Build 0)  -->
<svg version="1.1" id="Layer_1" xmlns="http://www.w3.org/2000/svg" xmlns:xlink="http://www.w3.org/1999/xlink" x="0px" y="0px"
	 viewBox="0 0 154 82" style="enable-background:new 0 0 154 82;" xml:space="preserve">
<style type="text/css">
	.st0{fill:#1B1B1B;}
	.st1{fill:#FFFFFF;}
</style>
<path class="st0" d="M46,887.7c0.9-0.1,1.9-0.3,2.9-0.4c5.6-0.1,11.2-0.3,16.8-0.3c7.5,0,15,0.1,22.5,0.1c8.7,0,17.4,0,26.1-0.1
	c0.3,0,0.6,0,1,0c2.4,0.1,2.6,0.3,2.7,2.6c0,5.4,0,10.9,0,16.3c0,0.9,0.1,1.7,0.1,2.8c1.4,0.1,2.7,0.4,3.9,0.4
	c9.8,0.1,19.5,0.1,29.3,0.3c7,0.1,13.9,0.6,20.9,0.9c7.8,0.3,15.5,0.6,23.3,0.9c0.4,0,0.8,0,1.2,0c1.5,0.1,1.8,0.3,1.8,1.9
	c0,3.4-0.1,6.9-0.1,10.3c-0.1,12.6-0.2,25.3-0.3,37.9c0,0.9-0.1,1.9-0.2,3c-1.3,0.1-2.4,0.2-3.5,0.2c-6.2,0.1-12.5,0-18.7,0.3
	c-16.9,1-33.7,0-50.6,0c-20.3,0-40.6,0.2-61,0.3c-5.8,0-11.5-0.2-17.3-0.3c-0.5,0-0.9-0.1-1.3-0.2C44.6,961.2,45,891.6,46,887.7z
	 M114.2,902.5c-1.2-0.2-1.9-0.3-2.6-0.4c-10.1-0.5-20.3-0.9-30.4-1.4c-0.6,0-1.3-0.2-1.6,0.1c-1.2,0.9-2.4,0.6-3.7,0.6
	c-8.1-0.3-16.3-0.6-24.4-0.9c-0.7,0-1.3,0.1-2,0.1c-0.1,0.2-0.1,0.3-0.2,0.5c5.8,4.7,11.5,9.4,17.4,14.3c5.1-4.2,10-8.4,15-12.5
	c4.3,3.1,8.5,6.1,12.6,9.1c1.3,1,2.4,1.2,3.9,0.3c4.5-2.7,9.1-5.4,13.6-8C112.5,903.8,113.1,903.3,114.2,902.5z M185,956.7
	c0.8-13.1,1.2-25.8,1.6-38.7c-2.7,0-5,0-7.7,0c-0.2,4.2-0.5,8.4-0.7,12.6c-0.2,4.3-0.4,8.6-0.5,12.9c-0.1,4.2-0.7,8.4-0.5,12.6
	C179.9,956.4,182.2,956.5,185,956.7z"/>
<path class="st1" d="M114.2,902.5c-1.1,0.8-1.8,1.3-2.5,1.7c-4.5,2.7-9.1,5.3-13.6,8c-1.5,0.9-2.5,0.7-3.9-0.3
	c-4.1-3.1-8.2-6-12.6-9.1c-5,4.2-9.9,8.3-15,12.5c-5.9-4.8-11.7-9.6-17.4-14.3c0.1-0.2,0.1-0.3,0.2-0.5c0.7,0,1.3-0.1,2-0.1
	c8.1,0.3,16.3,0.6,24.4,0.9c1.2,0,2.5,0.3,3.7-0.6c0.4-0.3,1.1-0.1,1.6-0.1c10.1,0.5,20.3,0.9,30.4,1.4
	C112.4,902.2,113.1,902.3,114.2,902.5z"/>
<path class="st1" d="M185,956.7c-2.8-0.2-5.1-0.4-7.8-0.5c-0.2-4.3,0.4-8.5,0.5-12.6c0.1-4.3,0.3-8.6,0.5-12.9
	c0.2-4.2,0.5-8.4,0.7-12.6c2.6,0,4.9,0,7.7,0C186.2,930.9,185.8,943.6,185,956.7z"/>
<path class="st0" d="M73.2,2c0.1,2.2,0.3,4.3,0.4,6.4c0.1,3.5,0.1,7.1,0.2,10.6c0,1.2,0.4,2.3,0.7,3.7c26.5-0.3,52.8-0.5,79.4-1.1
	c0,1.2,0.1,2.1,0.1,3c-0.2,10.6-0.4,21.2-0.5,31.9c0,6,0.2,18,0.4,24.1c0,0.3-0.1,0.6-0.2,1.1c-0.9,0.1-1.7,0.3-2.6,0.3
	c-22.5-0.1-45.1-0.1-67.6-0.3C60,81.5,36.5,81.2,13,81c-3.5,0-7.1,0-10.6,0C0.2,81,0,80.8,0,78.7c0-4.4,0.1-14.8,0.2-19.2
	c0.1-4.9,0.1-9.8,0.1-14.7c0.1-8.1,0.1-16.2,0.2-24.4c0.1-6,0.2-11.9,0.4-17.9C0.9,0.1,1,0,3.4,0c9.1,0.1,18.2,0.1,27.3,0.3
	C39.3,0.5,48,0.8,56.7,1.1c4.3,0.1,8.5,0.3,12.8,0.4C70.7,1.6,71.9,1.8,73.2,2z M98.5,64.8c1.8,0,3.6,0,5.3,0
	c11.7,0.1,23.5,0.3,35.2,0.5c0.9,0,1.8-0.1,2.9-0.2c0-2.8,0.1-5.4-0.5-7.8c-4.6-0.9-40.1-1-42.9-0.1C98.5,59.5,98.5,61.9,98.5,64.8z
	 M51.6,22.2c0.1,1.1,0.3,1.9,0.4,2.8c0.2,4.3,0.4,8.5,0.5,12.8c0,0.9,0.1,1.7,0.2,2.9c2.6-0.2,5-0.4,7.6-0.6
	c-0.2-6.2-1-12.1-0.7-18.3c2.5,0,4.8,0,7.3,0c0.2-3,0-5.7-0.5-8.6c-8.2,0.4-16.2,0.3-24.4,0.6c-0.1,3-0.1,5.6,0.2,8.4
	C45.6,22.2,48.5,22.2,51.6,22.2z M37,14c-3.2-0.7-21.7-0.7-23.6,0c0,2.3-0.4,4.7,0.3,7.3c2.4,0,4.6,0,7.1,0
	c-0.2,6.2-0.4,12.1-0.1,18c3.3,0.5,5.2,0.4,7.1-0.3c0.1-5.5,0.3-11.1,0.5-16.9c3,0,5.8,0,8.6,0C37,19.2,37,16.6,37,14z"/>
</svg>
