<?xml version="1.0" encoding="utf-8"?>
<!-- Generator: Adobe Illustrator 22.1.0, SVG Export Plug-In . SVG Version: 6.00 Build 0)  -->
<svg version="1.1" id="Layer_1" xmlns="http://www.w3.org/2000/svg" xmlns:xlink="http://www.w3.org/1999/xlink" x="0px" y="0px"
	 viewBox="0 0 154 82" style="enable-background:new 0 0 154 82;" xml:space="preserve">
<style type="text/css">
	.st0{fill:#1B1B1B;}
</style>
<path class="st0" d="M1.8,0.6C4.8-0.1,68,0.5,76,1.2c0.8,0.1,1.5,0.3,2.4,0.5c0,1.4,0.1,2.7,0,4c-0.3,5.1-0.6,10.2-0.9,15.3
	c0,0.6-0.1,1.1-0.1,1.7c0.1,1.9,0.6,2.4,2.5,2.4c2.2,0,4.5-0.1,6.7,0c14.9,0.1,29.7,0.3,44.6,0.5c6.4,0.1,12.8,0.2,19.2,0.3
	c0.8,0,1.7,0.2,2.7,0.3c0,1.1,0,1.9,0,2.8c0.3,15.2,0.5,30.4,0.8,45.6c0,1.4,0.2,2.9,0.2,4.3c0,1.8-0.1,1.9-1.9,2
	c-3.3,0.1-6.6,0.2-9.8,0.3c-26.6,0.2-53.3,0.4-79.9,0.5c-19.4,0-38.9-0.2-58.3-0.3c-0.4,0-0.8,0-1.2,0c-1.2,0-1.7-0.6-1.7-1.8
	c0-3.2,0.1-6.4,0.1-9.6c0-14.1-0.1-28.3-0.1-42.4c0-6.9,0.1-13.7,0.2-20.6c0-1.6-0.1-3.2-0.1-4.8C1.4,1.6,1.7,1.1,1.8,0.6z
	 M37.3,24.6c0-3.5-1.9-5.9-3.9-8.4c-3.1-3.9-7.5-4.4-11.7-3.8c-3.8,0.6-6.8,3-8.9,6.4c-1.4,2.3-1.9,4.7-1,7.3c1.7,5,5.4,8.2,10,10.3
	c1.1,0.5,2.7,0.4,4,0.2c5.2-0.7,8.2-4.2,10.5-8.5C36.8,27.2,36.9,25.9,37.3,24.6z M70.4,23.1c0.1-3.5,0.1-3.5-2.1-6.1
	c-0.5-0.5-0.9-1.1-1.4-1.6c-3.9-4.1-8.9-4.7-12.6-2.6c-3,1.7-5.5,4.1-7.2,7.2c-2.5,4.7-0.9,10.7,3.5,13.5c2.2,1.4,4.6,2.3,7.2,2.3
	c1,0,2-0.3,2.9-0.8c1.4-0.8,2.6-1.9,4-2.7C68.3,30.3,70.2,27.2,70.4,23.1z M135,71.7c1.4,0,2.5,0,3.6,0c1.2,0,2.3-0.1,3.6-0.2
	c0-12.2,0-24.1,0-36.2c-2.5-0.2-4.7-0.1-7.2,0.2C135,47.6,135,59.5,135,71.7z"/>
</svg>
